# This file uses centimeters as units for non-parametric coordinates.

g default
v -3718.593262 1730.578247 -35.016094
v -3178.593262 1730.578247 -35.016094
v -2638.593262 1730.578247 -35.016094
v -3718.593262 1910.578247 -35.016064
v -3178.593262 2193.329834 -35.016052
v -2638.593262 1910.578247 -35.016064
v -3718.593262 1730.578247 -21.203402
v -3178.593262 1730.578247 -21.203402
v -2638.593262 1730.578247 -21.203402
v -3718.593262 1910.578247 -21.203371
v -3178.593262 2193.329834 -21.203360
v -2638.593262 1910.578247 -21.203371
vt 0.995288 0.006226
vt 0.995288 0.171016
vt 0.500920 0.429874
vt 0.500920 0.006226
vt 0.006551 0.171016
vt 0.006551 0.006226
vt 0.006551 0.006226
vt 0.500920 0.006226
vt 0.500920 0.429874
vt 0.006551 0.171016
vt 0.995289 0.006226
vt 0.995289 0.171016
vt 0.995240 0.445890
vt 0.500240 0.445890
vt 0.500240 0.433229
vt 0.995240 0.433229
vt 0.005240 0.445890
vt 0.005240 0.433229
vt 0.005500 0.464311
vt 0.160019 0.464311
vt 0.160019 0.476168
vt 0.005500 0.476168
vt 0.995240 0.461430
vt 0.500350 0.461542
vt 0.500350 0.450325
vt 0.995238 0.450216
vt 0.005241 0.461430
vt 0.005243 0.450211
vt 0.316440 0.476114
vt 0.161922 0.476114
vt 0.161922 0.464257
vt 0.316440 0.464257
vn -0.000000 0.000000 -1.000000
vn -0.000000 0.000000 -1.000000
vn 0.000000 0.000000 -1.000000
vn 0.000000 0.000000 -1.000000
vn 0.000000 0.000000 -1.000000
vn 0.000000 0.000000 -1.000000
vn 0.000000 0.000000 -1.000000
vn 0.000000 0.000000 -1.000000
vn 0.000000 -0.000000 1.000000
vn 0.000000 -0.000000 1.000000
vn 0.000000 -0.000000 1.000000
vn 0.000000 -0.000000 1.000000
vn 0.000000 -0.000000 1.000000
vn 0.000000 0.000000 1.000000
vn 0.000000 0.000000 1.000000
vn 0.000000 -0.000000 1.000000
vn 0.000000 -1.000000 0.000000
vn 0.000000 -1.000000 0.000000
vn 0.000000 -1.000000 0.000000
vn 0.000000 -1.000000 0.000000
vn 0.000000 -1.000000 0.000000
vn 0.000000 -1.000000 0.000000
vn 0.000000 -1.000000 0.000000
vn 0.000000 -1.000000 0.000000
vn 1.000000 0.000000 0.000000
vn 1.000000 0.000000 0.000000
vn 1.000000 0.000000 0.000000
vn 1.000000 0.000000 0.000000
vn 0.463871 0.885903 0.000000
vn 0.000000 1.000000 0.000000
vn 0.000000 1.000000 0.000000
vn 0.463871 0.885903 0.000000
vn 0.000000 1.000000 0.000000
vn -0.463871 0.885903 0.000000
vn -0.463871 0.885903 0.000000
vn 0.000000 1.000000 0.000000
vn -1.000000 0.000000 0.000000
vn -1.000000 0.000000 0.000000
vn -1.000000 0.000000 0.000000
vn -1.000000 0.000000 0.000000
s off
g wall_1_p_1
f 1/1/1 4/2/2 5/3/3 2/4/4
f 2/4/5 5/3/6 6/5/7 3/6/8
f 7/7/9 8/8/10 11/9/11 10/10/12
f 8/8/13 9/11/14 12/12/15 11/9/16
f 1/13/17 2/14/18 8/15/19 7/16/20
f 2/14/21 3/17/22 9/18/23 8/15/24
f 3/19/25 6/20/26 12/21/27 9/22/28
f 6/23/29 5/24/30 11/25/31 12/26/32
f 5/24/33 4/27/34 10/28/35 11/25/36
f 4/29/37 1/30/38 7/31/39 10/32/40
