# This file uses centimeters as units for non-parametric coordinates.

g default
v -3727.529053 33.877621 0.000131
v -2647.529053 33.877621 0.000131
v -3727.529053 620.906799 0.000178
v -2647.529053 620.906799 0.000178
v -3727.529053 33.877621 13.812824
v -2647.529053 33.877621 13.812824
v -3727.529053 620.906799 13.812871
v -2647.529053 620.906799 13.812871
vt 0.008377 0.140659
vt 0.008377 0.557739
vt 0.775710 0.557739
vt 0.775710 0.140659
vt 0.008377 0.140659
vt 0.775710 0.140659
vt 0.775710 0.557739
vt 0.008377 0.557739
vt 0.998000 0.065547
vt 0.002000 0.065547
vt 0.002000 0.052809
vt 0.998000 0.052809
vt 0.543360 0.133292
vt 0.002000 0.133292
vt 0.002000 0.120554
vt 0.543360 0.120554
vt 0.997993 0.031675
vt 0.002000 0.031675
vt 0.002000 0.018936
vt 0.997993 0.018936
vt 0.543357 0.116356
vt 0.002000 0.116356
vt 0.002000 0.103618
vt 0.543357 0.103618
vn 0.000000 0.000000 -1.000000
vn 0.000000 0.000000 -1.000000
vn 0.000000 0.000000 -1.000000
vn 0.000000 0.000000 -1.000000
vn 0.000000 -0.000000 1.000000
vn 0.000000 -0.000000 1.000000
vn 0.000000 -0.000000 1.000000
vn 0.000000 -0.000000 1.000000
vn 0.000000 -1.000000 0.000000
vn 0.000000 -1.000000 0.000000
vn 0.000000 -1.000000 0.000000
vn 0.000000 -1.000000 0.000000
vn 1.000000 0.000000 0.000000
vn 1.000000 0.000000 0.000000
vn 1.000000 0.000000 0.000000
vn 1.000000 0.000000 0.000000
vn 0.000000 1.000000 0.000000
vn 0.000000 1.000000 0.000000
vn 0.000000 1.000000 0.000000
vn 0.000000 1.000000 0.000000
vn -1.000000 0.000000 0.000000
vn -1.000000 0.000000 0.000000
vn -1.000000 0.000000 0.000000
vn -1.000000 0.000000 0.000000
s off
g wall__3
f 1/1/1 3/2/2 4/3/3 2/4/4
f 5/5/5 6/6/6 8/7/7 7/8/8
f 1/9/9 2/10/10 6/11/11 5/12/12
f 2/13/13 4/14/14 8/15/15 6/16/16
f 4/17/17 3/18/18 7/19/19 8/20/20
f 3/21/21 1/22/22 5/23/23 7/24/24
