# This file uses centimeters as units for non-parametric coordinates.

g default
v -2589.736572 1276.087036 264.710541
v -2534.664551 1276.087036 264.710541
v -2589.736572 1869.942505 264.710602
v -2534.664551 1869.942505 264.710602
v -2589.736572 1276.087036 274.054504
v -2534.664551 1276.087036 274.054504
v -2589.736572 1869.942505 274.054565
v -2534.664551 1869.942505 274.054565
v -2567.884033 1869.942505 264.710602
v -2556.517090 1869.942505 264.710602
v -2556.517090 1276.087036 264.710541
v -2567.884033 1276.087036 264.710541
v -2567.884033 1276.087036 274.054504
v -2556.517090 1276.087036 274.054504
v -2556.517090 1869.942505 274.054565
v -2567.884033 1869.942505 274.054565
v -2589.736572 1276.087036 198.625916
v -2534.664551 1276.087036 198.625916
v -2589.736572 1869.942505 198.625961
v -2534.664551 1869.942505 198.625961
v -2589.736572 1276.087036 207.969894
v -2534.664551 1276.087036 207.969894
v -2589.736572 1869.942505 207.969940
v -2534.664551 1869.942505 207.969940
v -2567.884033 1869.942505 198.625961
v -2556.517090 1869.942505 198.625961
v -2556.517090 1276.087036 198.625916
v -2567.884033 1276.087036 198.625916
v -2567.884033 1276.087036 207.969894
v -2556.517090 1276.087036 207.969894
v -2556.517090 1869.942505 207.969940
v -2567.884033 1869.942505 207.969940
vt 0.210605 0.548438
vt 0.210605 0.002000
vt 0.221065 0.002000
vt 0.221065 0.548438
vt 0.241173 0.002000
vt 0.241173 0.548438
vt 0.156017 0.620222
vt 0.156017 0.611624
vt 0.166477 0.611624
vt 0.166477 0.620222
vt 0.834786 0.002000
vt 0.834786 0.548439
vt 0.826188 0.548439
vt 0.826188 0.002000
vt 0.101429 0.620222
vt 0.101429 0.611624
vt 0.111889 0.611624
vt 0.111889 0.620222
vt 0.823810 0.002000
vt 0.823810 0.548437
vt 0.815212 0.548437
vt 0.815212 0.002000
vt 0.343615 0.548437
vt 0.343615 0.002000
vt 0.363722 0.002000
vt 0.363722 0.548437
vt 0.408694 0.002000
vt 0.408694 0.548437
vt 0.388586 0.548437
vt 0.388586 0.002000
vt 0.190498 0.548438
vt 0.190498 0.002000
vt 0.186584 0.611624
vt 0.186584 0.620222
vt 0.135910 0.620222
vt 0.135910 0.611624
vt 0.131996 0.611624
vt 0.131996 0.620222
vt 0.081322 0.620222
vt 0.081322 0.611624
vt 0.263658 0.548438
vt 0.263658 0.002000
vt 0.274117 0.002000
vt 0.274117 0.548438
vt 0.156017 0.559414
vt 0.156017 0.550816
vt 0.166477 0.550816
vt 0.166477 0.559414
vt 0.812834 0.002000
vt 0.812834 0.548438
vt 0.804236 0.548438
vt 0.804236 0.002000
vt 0.101429 0.559414
vt 0.101429 0.550816
vt 0.111889 0.550816
vt 0.111889 0.559414
vt 0.845762 0.002000
vt 0.845762 0.548439
vt 0.837164 0.548439
vt 0.837164 0.002000
vt 0.243550 0.548438
vt 0.243550 0.002000
vt 0.366100 0.548437
vt 0.366100 0.002000
vt 0.386208 0.002000
vt 0.386208 0.548437
vt 0.431180 0.002000
vt 0.431180 0.548438
vt 0.411072 0.548438
vt 0.411072 0.002000
vt 0.186584 0.550816
vt 0.186584 0.559414
vt 0.135910 0.559414
vt 0.135910 0.550816
vt 0.131996 0.550816
vt 0.131996 0.559414
vt 0.081322 0.559414
vt 0.081322 0.550816
vt 0.081322 0.548438
vt 0.081322 0.002000
vt 0.133532 0.002000
vt 0.133532 0.548438
vt 0.135910 0.548438
vt 0.135910 0.002000
vt 0.188120 0.002000
vt 0.188120 0.548438
vt 0.294225 0.002000
vt 0.294225 0.548438
vn 0.000000 -0.000000 1.000000
vn 0.000000 -0.000000 1.000000
vn 0.000000 -0.000000 1.000000
vn 0.000000 -0.000000 1.000000
vn 0.000000 -0.000000 1.000000
vn 0.000000 -0.000000 1.000000
vn 0.000000 -0.000000 1.000000
vn 0.000000 -0.000000 1.000000
vn 0.000000 -1.000000 0.000000
vn 0.000000 -1.000000 0.000000
vn 0.000000 -1.000000 0.000000
vn 0.000000 -1.000000 0.000000
vn 1.000000 0.000000 0.000000
vn 1.000000 0.000000 0.000000
vn 1.000000 0.000000 0.000000
vn 1.000000 0.000000 0.000000
vn 0.000000 1.000000 0.000000
vn 0.000000 1.000000 0.000000
vn 0.000000 1.000000 0.000000
vn 0.000000 1.000000 0.000000
vn -1.000000 0.000000 0.000000
vn -1.000000 0.000000 0.000000
vn -1.000000 0.000000 0.000000
vn -1.000000 0.000000 0.000000
vn 0.000000 0.000000 -1.000000
vn 0.000000 0.000000 -1.000000
vn 0.000000 0.000000 -1.000000
vn 0.000000 0.000000 -1.000000
vn 0.000000 0.000000 -1.000000
vn 0.000000 0.000000 -1.000000
vn 0.000000 0.000000 -1.000000
vn 0.000000 0.000000 -1.000000
vn 0.000000 -0.000000 1.000000
vn 0.000000 -0.000000 1.000000
vn 0.000000 -0.000000 1.000000
vn 0.000000 -0.000000 1.000000
vn 0.000000 -1.000000 0.000000
vn 0.000000 -1.000000 0.000000
vn 0.000000 -1.000000 0.000000
vn 0.000000 -1.000000 0.000000
vn 0.000000 -1.000000 0.000000
vn 0.000000 -1.000000 0.000000
vn 0.000000 -1.000000 0.000000
vn 0.000000 -1.000000 0.000000
vn 0.000000 1.000000 0.000000
vn 0.000000 1.000000 0.000000
vn 0.000000 1.000000 0.000000
vn 0.000000 1.000000 0.000000
vn 0.000000 1.000000 0.000000
vn 0.000000 1.000000 0.000000
vn 0.000000 1.000000 0.000000
vn 0.000000 1.000000 0.000000
vn 0.000000 0.000000 -1.000000
vn 0.000000 0.000000 -1.000000
vn 0.000000 0.000000 -1.000000
vn 0.000000 0.000000 -1.000000
vn 0.000000 -1.000000 0.000000
vn 0.000000 -1.000000 0.000000
vn 0.000000 -1.000000 0.000000
vn 0.000000 -1.000000 0.000000
vn 1.000000 0.000000 0.000000
vn 1.000000 0.000000 0.000000
vn 1.000000 0.000000 0.000000
vn 1.000000 0.000000 0.000000
vn 0.000000 1.000000 0.000000
vn 0.000000 1.000000 0.000000
vn 0.000000 1.000000 0.000000
vn 0.000000 1.000000 0.000000
vn -1.000000 0.000000 0.000000
vn -1.000000 0.000000 0.000000
vn -1.000000 0.000000 0.000000
vn -1.000000 0.000000 0.000000
vn 0.000000 0.000000 -1.000000
vn 0.000000 0.000000 -1.000000
vn 0.000000 0.000000 -1.000000
vn 0.000000 0.000000 -1.000000
vn 0.000000 -0.000000 1.000000
vn 0.000000 -0.000000 1.000000
vn 0.000000 -0.000000 1.000000
vn 0.000000 -0.000000 1.000000
vn 0.000000 -0.000000 1.000000
vn 0.000000 -0.000000 1.000000
vn 0.000000 -0.000000 1.000000
vn 0.000000 -0.000000 1.000000
vn 0.000000 -1.000000 0.000000
vn 0.000000 -1.000000 0.000000
vn 0.000000 -1.000000 0.000000
vn 0.000000 -1.000000 0.000000
vn 0.000000 -1.000000 0.000000
vn 0.000000 -1.000000 0.000000
vn 0.000000 -1.000000 0.000000
vn 0.000000 -1.000000 0.000000
vn 0.000000 1.000000 0.000000
vn 0.000000 1.000000 0.000000
vn 0.000000 1.000000 0.000000
vn 0.000000 1.000000 0.000000
vn 0.000000 1.000000 0.000000
vn 0.000000 1.000000 0.000000
vn 0.000000 1.000000 0.000000
vn 0.000000 1.000000 0.000000
vn 0.000000 1.000000 0.000000
vn 0.000000 1.000000 0.000000
vn 0.000000 1.000000 0.000000
vn 0.000000 1.000000 0.000000
vn 1.000000 0.000000 0.000000
vn 1.000000 0.000000 0.000000
vn 1.000000 0.000000 0.000000
vn 1.000000 0.000000 0.000000
vn 0.000000 -1.000000 0.000000
vn 0.000000 -1.000000 0.000000
vn 0.000000 -1.000000 0.000000
vn 0.000000 -1.000000 0.000000
vn -1.000000 0.000000 0.000000
vn -1.000000 0.000000 0.000000
vn -1.000000 0.000000 0.000000
vn -1.000000 0.000000 0.000000
vn 0.000000 0.000000 -1.000000
vn 0.000000 0.000000 -1.000000
vn 0.000000 0.000000 -1.000000
vn 0.000000 0.000000 -1.000000
s off
g Rebar_1_P_4
f 16/1/1 13/2/2 14/3/3 15/4/4
f 15/4/5 14/3/6 6/5/7 8/6/8
f 13/7/9 12/8/10 11/9/11 14/10/12
f 8/11/13 6/12/14 2/13/15 4/14/16
f 15/15/17 10/16/18 9/17/19 16/18/20
f 5/19/21 7/20/22 3/21/23 1/22/24
f 11/23/25 10/24/26 4/25/27 2/26/28
f 9/27/29 12/28/30 1/29/31 3/30/32
f 13/2/33 16/1/34 7/31/35 5/32/36
f 14/10/37 11/9/38 2/33/39 6/34/40
f 12/8/41 13/7/42 5/35/43 1/36/44
f 16/18/45 9/17/46 3/37/47 7/38/48
f 10/16/49 15/15/50 8/39/51 4/40/52
f 28/41/53 25/42/54 26/43/55 27/44/56
f 29/45/57 28/46/58 27/47/59 30/48/60
f 24/49/61 22/50/62 18/51/63 20/52/64
f 31/53/65 26/54/66 25/55/67 32/56/68
f 21/57/69 23/58/70 19/59/71 17/60/72
f 25/42/73 28/41/74 17/61/75 19/62/76
f 31/63/77 30/64/78 22/65/79 24/66/80
f 29/67/81 32/68/82 23/69/83 21/70/84
f 30/48/85 27/47/86 18/71/87 22/72/88
f 28/46/89 29/45/90 21/73/91 17/74/92
f 32/56/93 25/55/94 19/75/95 23/76/96
f 26/54/97 31/53/98 24/77/99 20/78/100
f 31/53/101 32/56/102 9/17/103 10/16/104
f 30/79/105 31/80/106 10/81/107 11/82/108
f 29/45/109 30/48/110 11/9/111 12/8/112
f 32/83/113 29/84/114 12/85/115 9/86/116
f 27/44/117 26/43/118 20/87/119 18/88/120
