# This file uses centimeters as units for non-parametric coordinates.

g default
v -2641.815674 1920.125488 -1832.222656
v -3178.593262 2202.320801 -1832.222656
v -3178.593262 2202.320801 0.372559
v -2641.815674 1920.125488 0.372591
v -3715.370850 1920.125488 -1832.222656
v -3715.370850 1920.125488 0.372591
v -2646.526855 1911.293457 -1832.222656
v -3178.593262 2192.320801 -1832.222656
v -3178.593262 2192.320801 0.372557
v -2646.526855 1911.293457 0.372589
v -3710.659668 1911.293457 -1832.222656
v -3710.659668 1911.293457 0.372589
vt 0.007762 0.990706
vt 0.007762 0.759192
vt 0.992238 0.759192
vt 0.992238 0.990706
vt 0.992238 0.520234
vt 0.992238 0.751748
vt 0.007762 0.751748
vt 0.007762 0.520234
vt 0.007762 0.283745
vt 0.992238 0.283745
vt 0.992238 0.513460
vt 0.007762 0.513460
vt 0.992238 0.277948
vt 0.007762 0.277948
vt 0.007762 0.048233
vt 0.992238 0.048233
vt 0.002116 0.028687
vt 0.329142 0.030263
vt 0.331658 0.035080
vt 0.002067 0.034127
vt 0.005064 0.038205
vt 0.332095 0.038028
vt 0.332121 0.043468
vt 0.002529 0.043013
vt 0.997999 0.007440
vt 0.002000 0.007440
vt 0.002000 0.002000
vt 0.997999 0.002000
vt 0.343413 0.020169
vt 0.670444 0.020026
vt 0.670469 0.025466
vt 0.340877 0.024976
vt 0.998000 0.017076
vt 0.002000 0.017076
vt 0.002000 0.011636
vt 0.998000 0.011636
vt 0.001613 0.019567
vt 0.328641 0.021143
vt 0.331156 0.025961
vt 0.001565 0.025008
vn 0.465334 0.885135 0.000000
vn 0.465334 0.885135 0.000000
vn 0.465334 0.885135 0.000000
vn 0.465334 0.885135 0.000000
vn -0.465334 0.885135 0.000000
vn -0.465334 0.885135 -0.000000
vn -0.465334 0.885135 0.000000
vn -0.465334 0.885135 0.000000
vn -0.467038 -0.884237 0.000000
vn -0.467038 -0.884237 0.000000
vn -0.467038 -0.884237 0.000000
vn -0.467038 -0.884237 0.000000
vn 0.467038 -0.884237 0.000000
vn 0.467038 -0.884237 0.000000
vn 0.467038 -0.884237 0.000000
vn 0.467038 -0.884237 0.000000
vn 0.000000 0.000000 -1.000000
vn 0.000000 0.000000 -1.000000
vn 0.000000 0.000000 -1.000000
vn 0.000000 0.000000 -1.000000
vn 0.000000 0.000000 1.000000
vn 0.000000 0.000000 1.000000
vn 0.000000 0.000000 1.000000
vn 0.000000 0.000000 1.000000
vn 0.882320 -0.470651 0.000000
vn 0.882320 -0.470650 0.000000
vn 0.882320 -0.470650 0.000000
vn 0.882320 -0.470651 0.000000
vn 0.000000 0.000000 -1.000000
vn 0.000000 0.000000 -1.000000
vn 0.000000 0.000000 -1.000000
vn 0.000000 0.000000 -1.000000
vn -0.882320 -0.470650 0.000000
vn -0.882319 -0.470651 0.000000
vn -0.882320 -0.470651 0.000000
vn -0.882320 -0.470650 0.000000
vn 0.000000 -0.000000 1.000000
vn 0.000000 -0.000000 1.000000
vn 0.000000 -0.000000 1.000000
vn 0.000000 -0.000000 1.000000
s off
g Roof_old1
f 3/1/1 4/2/2 1/3/3 2/4/4
f 6/5/5 3/6/6 2/7/7 5/8/8
f 7/9/9 10/10/10 9/11/11 8/12/12
f 8/13/13 9/14/14 12/15/15 11/16/16
f 7/17/17 8/18/18 2/19/19 1/20/20
f 9/21/21 10/22/22 4/23/23 3/24/24
f 10/25/25 7/26/26 1/27/27 4/28/28
f 8/29/29 11/30/30 5/31/31 2/32/32
f 11/33/33 12/34/34 6/35/35 5/36/36
f 12/37/37 9/38/38 3/39/39 6/40/40
